<svg width="68" height="68" viewBox="0 0 68 68" fill="none" xmlns="http://www.w3.org/2000/svg">
<path fill-rule="evenodd" clip-rule="evenodd" d="M61.2043 2.24689L66.0378 4.01231L65.4178 6.82095L61.2043 2.24689Z" fill="#274D3A"/>
<path fill-rule="evenodd" clip-rule="evenodd" d="M65.418 6.82096L66.0379 4.01233L67.6912 7.54319L65.418 6.82096Z" fill="#216140"/>
<path fill-rule="evenodd" clip-rule="evenodd" d="M15.7402 25.2662L16.2224 24.4867L17.1065 25.5299L15.7402 25.2662Z" fill="#F24942"/>
<path fill-rule="evenodd" clip-rule="evenodd" d="M1.18253 20.5432L0 21.85L2.75541 22.7442L1.18253 20.5432Z" fill="#F24942"/>
<path fill-rule="evenodd" clip-rule="evenodd" d="M5.54526 22.9734L4.92529 25.7133L9.44875 24.842L5.54526 22.9734Z" fill="#F24942"/>
<path fill-rule="evenodd" clip-rule="evenodd" d="M11.4923 29.0838L11.3315 27.0203L14.351 27.7654L11.4923 29.0838Z" fill="#F24942"/>
<path fill-rule="evenodd" clip-rule="evenodd" d="M19.2763 31.9152L18.5645 29.9664L21.6758 29.8632L19.2763 31.9152Z" fill="#F24942"/>
<path fill-rule="evenodd" clip-rule="evenodd" d="M34.9134 20.5775L34.7986 18.4682L37.5195 19.2133L34.9134 20.5775Z" fill="#F4594C"/>
<path fill-rule="evenodd" clip-rule="evenodd" d="M37.5195 19.2248L37.818 22.1939L36.1762 22.1366L35.0052 21.3456L34.9133 20.5775L37.5195 19.2248Z" fill="#B34D46"/>
<path fill-rule="evenodd" clip-rule="evenodd" d="M45.5904 27.1693L41.9051 23.925L37.8179 22.194L38.9774 23.5352L41.8477 25.679L45.5904 27.1693Z" fill="#70383C"/>
<path fill-rule="evenodd" clip-rule="evenodd" d="M45.5906 27.1692L48.3001 25.6789L53.5583 27.215L45.5906 27.1692Z" fill="#F24942"/>
<path fill-rule="evenodd" clip-rule="evenodd" d="M22.0089 26.4126L21.7563 23.432L26.8883 24.6701L22.0089 26.4126Z" fill="#F24942"/>
<path fill-rule="evenodd" clip-rule="evenodd" d="M37.818 22.1939L37.5195 19.2248L42.6285 20.4858L37.818 22.1939Z" fill="#F24942"/>
<path fill-rule="evenodd" clip-rule="evenodd" d="M39.1383 30.5626L40.2864 26.2751L37.0718 28.35L39.1383 30.5626Z" fill="#F24942"/>
<path fill-rule="evenodd" clip-rule="evenodd" d="M35.3266 24.1657L30.4473 25.9082L34.5574 27.6278L35.3266 24.1657Z" fill="#F24942"/>
<path fill-rule="evenodd" clip-rule="evenodd" d="M42.6398 20.4858L37.8179 22.194L41.8936 23.9365L42.6398 20.4858Z" fill="#BA4844"/>
<path fill-rule="evenodd" clip-rule="evenodd" d="M29.2304 31.835L32.0432 30.3562L25.2925 28.5678L29.2304 31.835Z" fill="#F24942"/>
<path fill-rule="evenodd" clip-rule="evenodd" d="M45.5904 27.1692L48.2999 25.679L41.905 23.925L45.5904 27.1692Z" fill="#B14E43"/>
<path fill-rule="evenodd" clip-rule="evenodd" d="M41.8936 23.9365L42.6283 20.4858L48.2884 25.679L41.8936 23.9365Z" fill="#F24942"/>
<path fill-rule="evenodd" clip-rule="evenodd" d="M36.0039 16.6913L40.0681 16.8518L36.1072 10.9365L36.0039 16.6913Z" fill="#F4594C"/>
<path fill-rule="evenodd" clip-rule="evenodd" d="M27.7952 21.9303L30.275 22.6525L33.1223 20.119L28.8284 20.1075L27.7952 21.9303Z" fill="#F24942"/>
<path fill-rule="evenodd" clip-rule="evenodd" d="M34.7986 18.4797L37.5195 19.2249L40.0683 16.8518L36.0041 16.6913L34.7986 18.4797Z" fill="#9E4C40"/>
<path fill-rule="evenodd" clip-rule="evenodd" d="M37.5195 19.2248L45.1887 12.0828L42.64 20.4858L37.5195 19.2248Z" fill="#F46544"/>
<path fill-rule="evenodd" clip-rule="evenodd" d="M40.0683 16.8518L36.1074 10.9365L40.4701 8.552L45.1888 12.0714L40.0683 16.8518Z" fill="#FFB438"/>
<path fill-rule="evenodd" clip-rule="evenodd" d="M29.0007 16.3933L33.2716 14.0661L32.422 11.2919L29.0007 16.3933Z" fill="#F24942"/>
<path fill-rule="evenodd" clip-rule="evenodd" d="M36.1074 10.9365L40.4701 8.55198L39.368 5.93823L36.1074 10.9365Z" fill="#F98E3D"/>
<path fill-rule="evenodd" clip-rule="evenodd" d="M40.4586 8.56351L39.3564 5.94976L41.8134 3.73724L46.4057 5.37657L40.4586 8.56351Z" fill="#CC6A44"/>
<path fill-rule="evenodd" clip-rule="evenodd" d="M45.1886 12.0828L40.47 8.56342L46.4171 5.38794L45.1886 12.0828Z" fill="#F98E3D"/>
<path fill-rule="evenodd" clip-rule="evenodd" d="M45.1886 12.0828L49.7466 19.0758L42.6399 20.4858L45.1886 12.0828Z" fill="#F98E3D"/>
<path fill-rule="evenodd" clip-rule="evenodd" d="M48.2885 25.6904L42.6284 20.4973L49.7351 19.0872L48.2885 25.6904Z" fill="#FB9940"/>
<path fill-rule="evenodd" clip-rule="evenodd" d="M48.2886 25.6904L49.7352 19.0872L55.3723 23.6957L48.2886 25.6904Z" fill="#F56A40"/>
<path fill-rule="evenodd" clip-rule="evenodd" d="M48.2886 25.6904L55.3837 23.6957L53.5468 27.2265L48.2886 25.6904Z" fill="#F98E3D"/>
<path fill-rule="evenodd" clip-rule="evenodd" d="M53.5466 27.2266L55.3836 23.6957L61.1699 22.8932L53.5466 27.2266Z" fill="#FFF326"/>
<path fill-rule="evenodd" clip-rule="evenodd" d="M55.3835 23.6957L58.1734 21.5749L61.1699 22.8932L55.3835 23.6957Z" fill="#D2DF3D"/>
<path fill-rule="evenodd" clip-rule="evenodd" d="M61.1701 22.8933L58.1736 21.5749L61.6293 18.9497L61.1701 22.8933Z" fill="#2A9451"/>
<path fill-rule="evenodd" clip-rule="evenodd" d="M61.6294 18.9498L61.1702 22.8819L65.797 16.1526L61.6294 18.9498Z" fill="#284F3C"/>
<path fill-rule="evenodd" clip-rule="evenodd" d="M65.7852 16.164L61.6177 18.9497L60.7451 14.5132L65.7852 16.164Z" fill="#1C352A"/>
<path fill-rule="evenodd" clip-rule="evenodd" d="M60.7567 14.5132L61.6293 18.9497L56.9106 16.2672L60.7567 14.5132Z" fill="#00AD5E"/>
<path fill-rule="evenodd" clip-rule="evenodd" d="M61.6291 18.9497L56.9105 16.2672L55.3835 23.6958L61.6291 18.9497Z" fill="#FFF326"/>
<path fill-rule="evenodd" clip-rule="evenodd" d="M49.7466 19.0758L56.9106 16.2672L55.3837 23.6958L49.7466 19.0758Z" fill="#FC9D3B"/>
<path fill-rule="evenodd" clip-rule="evenodd" d="M46.4056 5.37654L41.8132 3.73722L43.145 2.57937L51.5834 0.0114746L46.4056 5.37654Z" fill="#F98E3D"/>
<path fill-rule="evenodd" clip-rule="evenodd" d="M46.4055 5.37653L53.1563 8.56347L51.5949 0L46.4055 5.37653Z" fill="#F7DE33"/>
<path fill-rule="evenodd" clip-rule="evenodd" d="M51.595 0.0114746L53.1564 8.57495L53.5008 1.8113L51.595 0.0114746Z" fill="#84C551"/>
<path fill-rule="evenodd" clip-rule="evenodd" d="M46.4057 5.37653L53.1564 8.56347L45.1887 12.0829L46.4057 5.37653Z" fill="#C16844"/>
<path fill-rule="evenodd" clip-rule="evenodd" d="M45.1887 12.0829L49.7466 19.0759L53.1679 8.57501L45.1887 12.0829Z" fill="#D5A244"/>
<path fill-rule="evenodd" clip-rule="evenodd" d="M49.7466 19.0759L56.9106 16.2672L53.1679 8.57501L49.7466 19.0759Z" fill="#FFF326"/>
<path fill-rule="evenodd" clip-rule="evenodd" d="M56.9107 16.2672L60.7568 14.5133L63.0875 12.6332L53.1565 8.57501L56.9107 16.2672Z" fill="#D2D040"/>
<path fill-rule="evenodd" clip-rule="evenodd" d="M51.595 0.0114746L53.5008 1.81129L61.0667 3.11817L61.2045 2.25838L58.3113 0.653448L51.595 0.0114746Z" fill="#2A9451"/>
<path fill-rule="evenodd" clip-rule="evenodd" d="M53.168 8.57499L53.5124 1.81134L61.0783 3.11821L61.2505 5.19317L53.168 8.57499Z" fill="#45B759"/>
<path fill-rule="evenodd" clip-rule="evenodd" d="M66.1988 14.1349L65.7969 16.164L60.7568 14.5132L63.0875 12.6331L66.1988 14.1349Z" fill="#2D6046"/>
<path fill-rule="evenodd" clip-rule="evenodd" d="M63.5924 6.23629L65.4064 6.82095L61.2044 2.24689L61.0667 3.10667L61.2389 5.18162L63.5924 6.23629Z" fill="#216140"/>
<path fill-rule="evenodd" clip-rule="evenodd" d="M63.0874 12.6217L65.6017 8.28839L66.1872 14.1235L63.0874 12.6217Z" fill="#1A8056"/>
<path fill-rule="evenodd" clip-rule="evenodd" d="M63.5926 6.23632L61.239 5.19312L53.1565 8.57494L58.5869 10.7875L63.5926 6.23632Z" fill="#203B2E"/>
<path fill-rule="evenodd" clip-rule="evenodd" d="M63.0874 12.6217L65.6017 8.28839L58.5869 10.7875L63.0874 12.6217Z" fill="#2BA85B"/>
<path fill-rule="evenodd" clip-rule="evenodd" d="M67.6912 7.55461L63.5926 6.23627L58.5869 10.7989L67.6912 7.55461Z" fill="#45B759"/>
<path fill-rule="evenodd" clip-rule="evenodd" d="M66.1986 14.1349L67.6911 7.54321L65.6016 8.29982L66.1986 14.1349Z" fill="#24664C"/>
<path d="M1.56284 54.1351C0.523183 53.1305 0 51.791 0 50.1099V42.5351C0 40.854 0.516475 39.5212 1.54942 38.5367C2.58237 37.5521 3.9641 37.0565 5.69462 37.0565C7.41172 37.0565 8.78674 37.5521 9.8264 38.5367C10.866 39.5212 11.3892 40.854 11.3892 42.5351V42.6623C11.3892 42.7829 11.3557 42.8833 11.2819 42.9637C11.2148 43.0441 11.1142 43.0776 10.9935 43.0776L6.88854 43.2048C6.62695 43.2048 6.49951 43.0842 6.49951 42.8431V42.1935C6.49951 41.8988 6.42573 41.6644 6.27816 41.4902C6.1306 41.3161 5.93608 41.229 5.69462 41.229C5.45315 41.229 5.25863 41.3161 5.11107 41.4902C4.9635 41.6644 4.88972 41.8988 4.88972 42.1935V50.5251C4.88972 50.8198 4.9635 51.0475 5.11107 51.215C5.25863 51.3824 5.45315 51.4628 5.69462 51.4628C5.93608 51.4628 6.1306 51.3824 6.27816 51.215C6.42573 51.0475 6.49951 50.8198 6.49951 50.5251V49.8219C6.49951 49.5808 6.62695 49.4602 6.88854 49.4602L10.9935 49.5875C11.1142 49.5875 11.2081 49.6277 11.2819 49.7014C11.349 49.7817 11.3892 49.8822 11.3892 50.0027V50.1099C11.3892 51.215 11.1478 52.1928 10.6715 53.03C10.1953 53.8672 9.52456 54.5168 8.67272 54.9656C7.81417 55.4143 6.82146 55.642 5.69462 55.642C3.98422 55.642 2.60249 55.1397 1.56284 54.1351Z" fill="#45B759"/>
<path d="M12.6369 55.3272C12.5698 55.2603 12.5295 55.1598 12.5295 55.0393V37.6526C12.5295 37.532 12.5631 37.4383 12.6369 37.3646C12.7039 37.2976 12.8045 37.2574 12.9253 37.2574H17.0302C17.151 37.2574 17.2449 37.2909 17.3187 37.3646C17.3857 37.4316 17.426 37.532 17.426 37.6526V55.0459C17.426 55.1665 17.3924 55.2603 17.3187 55.3339C17.2516 55.4009 17.151 55.4411 17.0302 55.4411H12.9253C12.8045 55.4344 12.7039 55.4009 12.6369 55.3272Z" fill="#45B759"/>
<path d="M30.4987 37.3646C30.5658 37.4316 30.606 37.532 30.606 37.6526V41.0549C30.606 41.1755 30.5725 41.2692 30.4987 41.3429C30.4316 41.4099 30.331 41.4501 30.2103 41.4501H27.145C27.0377 41.4501 26.9907 41.5036 26.9907 41.6041V55.0459C26.9907 55.1665 26.9572 55.2603 26.8834 55.3339C26.8163 55.4009 26.7157 55.4411 26.595 55.4411H22.49C22.3693 55.4411 22.2754 55.4076 22.2016 55.3339C22.1345 55.267 22.0943 55.1665 22.0943 55.0459V41.5974C22.0943 41.4902 22.0406 41.4434 21.94 41.4434H18.9485C18.8277 41.4434 18.7338 41.4099 18.6601 41.3362C18.593 41.2692 18.5527 41.1688 18.5527 41.0482V37.6459C18.5527 37.5253 18.5863 37.4316 18.6601 37.3579C18.7271 37.2909 18.8277 37.2507 18.9485 37.2507H30.2036C30.331 37.2641 30.4249 37.2976 30.4987 37.3646Z" fill="#45B759"/>
<path d="M38.4269 55.0995L36.844 48.5829C36.8104 48.4958 36.7769 48.4556 36.7367 48.4556C36.6696 48.4556 36.6293 48.5092 36.6293 48.6097V55.0459C36.6293 55.1665 36.5958 55.2603 36.522 55.3339C36.455 55.4009 36.3543 55.4411 36.2336 55.4411H32.1287C32.0079 55.4411 31.914 55.4076 31.8402 55.3339C31.7732 55.267 31.7329 55.1665 31.7329 55.0459V37.6526C31.7329 37.532 31.7665 37.4383 31.8402 37.3646C31.9073 37.2976 32.0079 37.2574 32.1287 37.2574H37.9775C39.0172 37.2574 39.9428 37.5053 40.7477 37.9942C41.5526 38.4898 42.1831 39.1729 42.6325 40.0436C43.0819 40.921 43.31 41.9189 43.31 43.0441C43.31 43.9951 43.1423 44.8457 42.8136 45.6025C42.4849 46.3526 42.0087 46.9621 41.3849 47.4309C41.3178 47.4845 41.291 47.5515 41.3044 47.6385L43.4106 54.9857C43.4307 55.0192 43.4374 55.066 43.4374 55.1129C43.4374 55.3205 43.3167 55.4277 43.0752 55.4277H38.8361C38.6147 55.4344 38.4806 55.3205 38.4269 55.0995ZM36.7903 41.4434C36.683 41.4434 36.6361 41.497 36.6361 41.5974V44.5845C36.6361 44.6916 36.6897 44.7385 36.7903 44.7385H37.1257C37.508 44.7385 37.8166 44.5979 38.0647 44.3099C38.3062 44.0219 38.4269 43.6201 38.4269 43.1043C38.4269 42.5685 38.3129 42.16 38.0782 41.872C37.8434 41.584 37.5281 41.4434 37.1324 41.4434H36.7903Z" fill="#45B759"/>
<path d="M47.1063 54.9388C46.2545 54.47 45.5971 53.8136 45.1276 52.963C44.6581 52.1125 44.4233 51.1346 44.4233 50.0295V37.6526C44.4233 37.532 44.4569 37.4383 44.5307 37.3646C44.5977 37.2976 44.6983 37.2574 44.8191 37.2574H48.924C49.0448 37.2574 49.1387 37.2909 49.2125 37.3646C49.2795 37.4316 49.3198 37.532 49.3198 37.6526V50.5051C49.3198 50.7997 49.3868 51.0342 49.5277 51.2083C49.6686 51.3824 49.8497 51.4695 50.071 51.4695C50.2991 51.4695 50.4734 51.3824 50.6009 51.2083C50.7283 51.0342 50.7954 50.7997 50.7954 50.5051V37.6526C50.7954 37.532 50.8289 37.4383 50.9027 37.3646C50.9698 37.2976 51.0704 37.2574 51.1911 37.2574H55.2961C55.4168 37.2574 55.5107 37.2909 55.5845 37.3646C55.6516 37.4316 55.6918 37.532 55.6918 37.6526V50.0362C55.6918 51.1413 55.4571 52.1192 54.9876 52.9697C54.518 53.8203 53.8607 54.4767 53.0089 54.9455C52.157 55.4143 51.1777 55.6487 50.071 55.6487C48.9441 55.642 47.9582 55.4076 47.1063 54.9388Z" fill="#45B759"/>
<path d="M59.5083 55.0191C58.6765 54.6039 58.0326 54.0279 57.5698 53.2912C57.1137 52.5544 56.8789 51.7106 56.8789 50.7595V49.9558C56.8789 49.8353 56.9125 49.7415 56.9863 49.6678C57.0533 49.6009 57.1539 49.5607 57.2747 49.5607H61.3327C61.4534 49.5607 61.5473 49.5942 61.6211 49.6678C61.6882 49.7348 61.7284 49.8353 61.7284 49.9558V50.5251C61.7284 50.7997 61.7955 51.0274 61.9363 51.2015C62.0772 51.3757 62.2516 51.4628 62.4595 51.4628C62.6675 51.4628 62.8418 51.3824 62.9827 51.2283C63.1236 51.0743 63.1906 50.8734 63.1906 50.6323C63.1906 50.3376 63.0498 50.0496 62.7748 49.7616C62.4998 49.4736 61.9162 49.0249 61.0308 48.402C60.1656 47.7992 59.4479 47.2433 58.8845 46.741C58.321 46.2387 57.8314 45.6092 57.4155 44.8456C56.9997 44.0821 56.7917 43.2115 56.7917 42.2269C56.7917 41.2089 57.0198 40.3048 57.4826 39.5278C57.9387 38.7509 58.5893 38.1415 59.4345 37.7128C60.2729 37.2775 61.2388 37.0632 62.3321 37.0632C63.4388 37.0632 64.4181 37.2775 65.2565 37.7128C66.0949 38.1482 66.7456 38.7509 67.2084 39.5278C67.6645 40.3048 67.8992 41.2089 67.8992 42.2269V42.7962C67.8992 42.9168 67.8657 43.0105 67.7919 43.0842C67.7249 43.1512 67.6242 43.1914 67.5035 43.1914H63.4723C63.3516 43.1914 63.2577 43.1579 63.1839 43.0842C63.1168 43.0172 63.0766 42.9168 63.0766 42.7962V42.1198C63.0766 41.8586 63.0095 41.6509 62.8687 41.4835C62.7278 41.3161 62.5467 41.2357 62.3254 41.2357C62.0973 41.2357 61.9229 41.3228 61.7955 41.4969C61.668 41.671 61.601 41.9054 61.601 42.2001C61.601 42.5484 61.7418 42.8766 62.0168 43.1981C62.2918 43.5195 62.8486 43.9817 63.6803 44.5844C64.787 45.3948 65.6254 46.0579 66.1889 46.5602C66.7523 47.0625 67.195 47.6318 67.5169 48.2614C67.8389 48.8909 67.9999 49.6343 67.9999 50.4782C67.9999 52.0521 67.4901 53.3046 66.4639 54.2422C65.4443 55.1799 64.0961 55.642 62.4327 55.642C61.3126 55.642 60.34 55.4344 59.5083 55.0191Z" fill="#45B759"/>
<path fill-rule="evenodd" clip-rule="evenodd" d="M5.06506 60.0001C5.06506 59.8834 5.06973 59.6827 5.18662 59.5613C5.28014 59.4539 5.41573 59.4446 5.47652 59.4446H5.54665V58.903H5.43911C5.06038 58.903 4.82193 59.0804 4.70503 59.2158C4.44787 59.5053 4.45255 59.9021 4.45255 60.0515V60.8779C4.45255 61.0086 4.44787 61.2093 4.39176 61.3401C4.32163 61.5175 4.1533 61.6715 3.87744 61.6669V62.2785C4.1533 62.2738 4.3263 62.4278 4.39176 62.6053C4.44787 62.736 4.45255 62.9367 4.45255 63.0675V63.8938C4.45255 64.1226 4.47125 64.468 4.70503 64.7295C4.88271 64.9256 5.1726 65.0423 5.43911 65.0423H5.54665V64.4867H5.47652C5.09779 64.4867 5.06038 64.1366 5.06038 63.9312V63.0488C5.06038 62.6846 5.00427 62.4325 4.89674 62.2644C4.83595 62.1711 4.70503 62.0263 4.47593 61.9657C4.70503 61.905 4.83595 61.7602 4.89674 61.6669C5.00427 61.4988 5.06038 61.2467 5.06038 60.8825V60.0001H5.06506Z" fill="white"/>
<path fill-rule="evenodd" clip-rule="evenodd" d="M62.8227 60.8824C62.8227 61.2466 62.8788 61.4987 62.9863 61.6668C63.0471 61.7601 63.0658 61.9049 63.2949 61.9656C63.0658 62.0263 63.0471 62.171 62.9863 62.2644C62.8788 62.4324 62.8227 62.6845 62.8227 63.0487V63.9311C62.8227 64.1365 62.79 64.4866 62.4066 64.4866H62.3364V65.0282H62.444C62.7105 65.0282 63.0004 64.9115 63.178 64.7154C63.4071 64.4586 63.4305 64.1131 63.4305 63.8797V63.0534C63.4305 62.9226 63.4352 62.7219 63.4913 62.5912C63.5614 62.4137 63.7298 62.2597 64.0056 62.2644V61.6528C63.7298 61.6574 63.5568 61.5034 63.4913 61.326C63.4352 61.1952 63.4305 60.9945 63.4305 60.8638V60.0374C63.4305 59.888 63.4352 59.4958 63.178 59.2017C63.0611 59.0663 62.8274 58.8889 62.444 58.8889H62.3364V59.4445H62.4066C62.4673 59.4445 62.6029 59.4492 62.6964 59.5612C62.8133 59.6826 62.818 59.888 62.818 60.0001V60.8824H62.8227Z" fill="white"/>
<path d="M10.2408 65.0096C8.81477 65.0096 8.03863 64.44 7.90771 63.2962H8.51554C8.56229 63.6464 8.72126 63.9171 8.99712 64.1179C9.27297 64.314 9.68442 64.412 10.2315 64.412C10.498 64.412 10.7271 64.384 10.9281 64.328C11.1292 64.272 11.2928 64.1926 11.4284 64.0946C11.5593 63.9965 11.6575 63.8798 11.723 63.7444C11.7884 63.609 11.8212 63.4643 11.8212 63.3102C11.8212 63.1562 11.7931 63.0254 11.7417 62.9134C11.6902 62.8013 11.5921 62.7033 11.4565 62.6146C11.3209 62.5259 11.1292 62.4372 10.8954 62.3578C10.6569 62.2738 10.353 62.1851 9.98366 62.0917C9.6704 62.0123 9.38987 61.9283 9.14206 61.8443C8.89893 61.7602 8.68853 61.6529 8.52489 61.5315C8.35657 61.4054 8.23033 61.256 8.14617 61.0786C8.06201 60.9012 8.01993 60.6818 8.01993 60.4157C8.01993 60.1869 8.06668 59.9768 8.16487 59.7901C8.26306 59.6033 8.39865 59.4446 8.57164 59.3139C8.74464 59.1831 8.95971 59.0851 9.20752 59.0151C9.45532 58.945 9.73586 58.9124 10.0398 58.9124C10.7317 58.9124 11.2554 59.0291 11.6108 59.2625C11.9661 59.4959 12.1671 59.8601 12.2092 60.3596H11.6014C11.5593 60.0702 11.4237 59.8554 11.1853 59.72C10.9468 59.5846 10.5962 59.5146 10.1239 59.5146C9.90418 59.5146 9.70313 59.5333 9.51611 59.5753C9.32908 59.6173 9.17011 59.6733 9.0392 59.7527C8.90828 59.8321 8.80075 59.9255 8.72594 60.0468C8.65113 60.1636 8.61372 60.2989 8.61372 60.4483C8.61372 60.5324 8.62775 60.6211 8.66048 60.7098C8.68853 60.7985 8.76802 60.8919 8.88958 60.9852C9.01115 61.0786 9.19349 61.1767 9.44129 61.2747C9.68442 61.3727 10.0211 61.4754 10.4465 61.5782C10.7832 61.6622 11.0731 61.7509 11.3209 61.8443C11.5687 61.9376 11.7744 62.045 11.938 62.1757C12.1017 62.3018 12.2233 62.4512 12.3027 62.6193C12.3822 62.7873 12.4243 62.9881 12.4243 63.2169C12.4243 63.4736 12.3729 63.7117 12.27 63.9312C12.1671 64.1552 12.0222 64.3467 11.8352 64.5054C11.6482 64.6641 11.4191 64.7902 11.1479 64.8836C10.8767 64.9629 10.5728 65.0096 10.2408 65.0096Z" fill="white"/>
<path d="M20.2562 59.0571L18.1428 64.9676C18.0119 65.3177 17.881 65.6259 17.75 65.8873C17.6191 66.1534 17.4742 66.3728 17.3199 66.5549C17.1656 66.7323 16.9926 66.8677 16.8056 66.9611C16.6185 67.0498 16.4081 67.0965 16.179 67.0965C16.0995 67.0965 16.0201 67.0918 15.9453 67.0872C15.8704 67.0825 15.7956 67.0731 15.7208 67.0638V66.4195C15.7629 66.4242 15.805 66.4289 15.8471 66.4289C15.8938 66.4289 15.9406 66.4289 15.9873 66.4289C16.3333 66.4289 16.6279 66.3122 16.871 66.0741C17.1142 65.836 17.3292 65.4531 17.5163 64.9162L15.3047 59.0617H15.9639L17.8623 64.1226L19.6016 59.0617H20.2562V59.0571Z" fill="white"/>
<path d="M25.3854 65.0096C23.9593 65.0096 23.1832 64.44 23.0522 63.2962H23.6601C23.7068 63.6464 23.8658 63.9171 24.1417 64.1179C24.4175 64.314 24.829 64.412 25.376 64.412C25.6425 64.412 25.8716 64.384 26.0727 64.328C26.2737 64.272 26.4374 64.1926 26.573 64.0946C26.7039 63.9965 26.8021 63.8798 26.8675 63.7444C26.933 63.609 26.9657 63.4643 26.9657 63.3102C26.9657 63.1562 26.9377 63.0254 26.8862 62.9134C26.8348 62.8013 26.7366 62.7033 26.601 62.6146C26.4654 62.5259 26.2737 62.4372 26.0399 62.3578C25.8015 62.2738 25.4976 62.1851 25.1282 62.0917C24.8149 62.0123 24.5344 61.9283 24.2866 61.8443C24.0435 61.7602 23.8331 61.6529 23.6694 61.5315C23.5011 61.4054 23.3749 61.256 23.2907 61.0786C23.2065 60.9012 23.1645 60.6818 23.1645 60.4157C23.1645 60.1869 23.2112 59.9768 23.3094 59.7901C23.4076 59.6033 23.5432 59.4446 23.7162 59.3139C23.8892 59.1831 24.1043 59.0851 24.3521 59.0151C24.5999 58.945 24.8804 58.9124 25.1843 58.9124C25.8763 58.9124 26.4 59.0291 26.7553 59.2625C27.1107 59.4959 27.3117 59.8601 27.3538 60.3596H26.746C26.7039 60.0702 26.5683 59.8554 26.3298 59.72C26.0914 59.5846 25.7407 59.5146 25.2685 59.5146C25.0487 59.5146 24.8477 59.5333 24.6606 59.5753C24.4736 59.6173 24.3147 59.6733 24.1837 59.7527C24.0528 59.8321 23.9453 59.9255 23.8705 60.0468C23.7957 60.1636 23.7583 60.2989 23.7583 60.4483C23.7583 60.5324 23.7723 60.6211 23.805 60.7098C23.8331 60.7985 23.9126 60.8919 24.0341 60.9852C24.1557 61.0786 24.338 61.1767 24.5858 61.2747C24.829 61.3727 25.1656 61.4754 25.5911 61.5782C25.9277 61.6622 26.2176 61.7509 26.4654 61.8443C26.7132 61.9376 26.919 62.045 27.0826 62.1757C27.2462 62.3018 27.3678 62.4512 27.4473 62.6193C27.5268 62.7873 27.5689 62.9881 27.5689 63.2169C27.5689 63.4736 27.5174 63.7117 27.4146 63.9312C27.3117 64.1552 27.1668 64.3467 26.9797 64.5054C26.7927 64.6641 26.5636 64.7902 26.2924 64.8836C26.0212 64.9769 25.722 65.0096 25.3854 65.0096Z" fill="white"/>
<path d="M32.4407 65.3718C32.3565 65.3811 32.2723 65.3905 32.1835 65.3951C32.0993 65.3998 32.0152 65.4045 31.9264 65.4045C31.6645 65.4045 31.4588 65.3671 31.2998 65.2971C31.1409 65.2271 31.024 65.115 30.9398 64.9703C30.8556 64.8256 30.8042 64.6435 30.7808 64.4287C30.7574 64.2093 30.7434 63.9572 30.7434 63.6677V60.1196H30V59.522H30.7434V58H31.3419V59.522H32.2957V60.1196H31.3419V63.7238C31.3419 63.9619 31.3606 64.1533 31.3933 64.298C31.4261 64.4381 31.4822 64.5501 31.5523 64.6295C31.6224 64.7089 31.7066 64.7555 31.8095 64.7789C31.9123 64.8022 32.0292 64.8116 32.1601 64.8116C32.2162 64.8116 32.263 64.8116 32.3004 64.8116C32.3425 64.8116 32.3846 64.8069 32.436 64.8022V65.3718H32.4407Z" fill="white"/>
<path d="M38.3927 65.0096C37.9859 65.0096 37.6212 64.9396 37.2892 64.8042C36.9573 64.6688 36.6767 64.468 36.4383 64.2066C36.1998 63.9451 36.0175 63.623 35.8866 63.2448C35.7556 62.8667 35.6902 62.4325 35.6902 61.9469C35.6902 61.4754 35.751 61.0552 35.8772 60.6771C36.0035 60.2989 36.1811 59.9814 36.4102 59.72C36.6393 59.4586 36.9105 59.2578 37.2285 59.1177C37.5417 58.9777 37.8924 58.9077 38.2805 58.9077C38.6732 58.9077 39.0332 58.9777 39.3512 59.1177C39.6691 59.2578 39.945 59.4586 40.1694 59.72C40.3938 59.9814 40.5668 60.3036 40.6884 60.6771C40.81 61.0552 40.8661 61.4801 40.8661 61.9516V62.087H36.2933C36.3214 62.4792 36.3962 62.8247 36.5131 63.1141C36.63 63.4036 36.7796 63.6463 36.9619 63.8378C37.149 64.0292 37.3594 64.1739 37.6025 64.2673C37.8456 64.3606 38.1075 64.4073 38.3927 64.4073C38.5937 64.4073 38.7948 64.384 38.9911 64.3373C39.1922 64.2906 39.3746 64.2206 39.5335 64.1225C39.6972 64.0292 39.8328 63.9125 39.9403 63.7724C40.0525 63.6323 40.1133 63.4736 40.1367 63.2915H40.7305C40.6744 63.567 40.5762 63.8097 40.4359 64.0198C40.2956 64.2299 40.1226 64.412 39.9169 64.5567C39.7112 64.7061 39.4774 64.8135 39.2203 64.8882C38.9678 64.9722 38.6872 65.0096 38.3927 65.0096ZM40.2629 61.4894C40.1647 60.8265 39.9356 60.3269 39.5849 60.0001C39.2343 59.6686 38.7995 59.5052 38.2851 59.5052C38.028 59.5052 37.7942 59.5473 37.5744 59.6266C37.3547 59.706 37.1583 59.8274 36.9853 59.9954C36.8123 60.1589 36.6674 60.3689 36.5505 60.6164C36.4336 60.8638 36.3494 61.1579 36.298 61.4941H40.2629V61.4894Z" fill="white"/>
<path d="M51.952 64.8602H51.3535V61.0693C51.3535 60.5137 51.2694 60.1169 51.0964 59.8694C50.9234 59.6267 50.6195 59.5006 50.1847 59.5006C49.8667 59.5006 49.5534 59.5986 49.2495 59.7947C48.9456 59.9908 48.6511 60.2709 48.3705 60.6304V64.8602H47.772V61.0693C47.772 60.7938 47.7533 60.5557 47.7159 60.3596C47.6785 60.1589 47.6131 59.9955 47.5242 59.8741C47.4354 59.748 47.3138 59.6547 47.1689 59.5986C47.0193 59.538 46.8416 59.5099 46.6265 59.5099C46.3133 59.5099 46.0093 59.608 45.7288 59.8041C45.4436 60.0001 45.1584 60.2803 44.8685 60.6398V64.8602H44.27V59.0571H44.8685V59.9161C45.0695 59.692 45.2566 59.5146 45.4342 59.3792C45.6119 59.2485 45.7802 59.1458 45.9345 59.0758C46.0935 59.0057 46.2431 58.959 46.3834 58.9357C46.5237 58.9124 46.6639 58.903 46.7902 58.903C47.1642 58.903 47.4868 58.9917 47.7487 59.1645C48.0152 59.3372 48.2069 59.608 48.3284 59.9675C48.478 59.7574 48.637 59.5846 48.8053 59.4492C48.9737 59.3139 49.142 59.2018 49.315 59.1224C49.488 59.0431 49.661 58.9871 49.834 58.9544C50.007 58.9217 50.18 58.9077 50.3436 58.9077C51.419 58.9077 51.9567 59.6127 51.9567 61.0179V64.8602H51.952Z" fill="white"/>
<path d="M57.6049 65.0096C56.1788 65.0096 55.4026 64.44 55.2717 63.2962H55.8796C55.9263 63.6464 56.0853 63.9171 56.3611 64.1179C56.637 64.314 57.0485 64.412 57.5955 64.412C57.862 64.412 58.0911 64.384 58.2922 64.328C58.4932 64.272 58.6569 64.1926 58.7925 64.0946C58.9234 63.9965 59.0216 63.8798 59.087 63.7444C59.1525 63.609 59.1852 63.4643 59.1852 63.3102C59.1852 63.1562 59.1572 63.0254 59.1057 62.9134C59.0543 62.8013 58.9561 62.7033 58.8205 62.6146C58.6849 62.5259 58.4932 62.4372 58.2594 62.3578C58.021 62.2738 57.7171 62.1851 57.3477 62.0917C57.0344 62.0123 56.7539 61.9283 56.5061 61.8443C56.263 61.7602 56.0526 61.6529 55.8889 61.5315C55.7206 61.4054 55.5943 61.256 55.5102 61.0786C55.426 60.9012 55.3839 60.6818 55.3839 60.4157C55.3839 60.1869 55.4307 59.9768 55.5289 59.7901C55.6271 59.6033 55.7627 59.4446 55.9357 59.3139C56.1087 59.1831 56.3237 59.0851 56.5715 59.0151C56.8194 58.945 57.0999 58.9124 57.4038 58.9124C58.0958 58.9124 58.6195 59.0291 58.9748 59.2625C59.3302 59.4959 59.5312 59.8601 59.5733 60.3596H58.9655C58.9234 60.0702 58.7878 59.8554 58.5493 59.72C58.3109 59.5846 57.9602 59.5146 57.488 59.5146C57.2682 59.5146 57.0672 59.5333 56.8801 59.5753C56.6931 59.6173 56.5341 59.6733 56.4032 59.7527C56.2723 59.8321 56.1648 59.9255 56.09 60.0468C56.0151 60.1636 55.9777 60.2989 55.9777 60.4483C55.9777 60.5324 55.9918 60.6211 56.0245 60.7098C56.0526 60.7985 56.132 60.8919 56.2536 60.9852C56.3752 61.0786 56.5575 61.1767 56.8053 61.2747C57.0485 61.3727 57.3851 61.4754 57.8106 61.5782C58.1472 61.6622 58.4371 61.7509 58.6849 61.8443C58.9327 61.9376 59.1385 62.045 59.3021 62.1757C59.4658 62.3018 59.5873 62.4512 59.6668 62.6193C59.7463 62.7873 59.7884 62.9881 59.7884 63.2169C59.7884 63.4736 59.7369 63.7117 59.6341 63.9312C59.5312 64.1552 59.3863 64.3467 59.1992 64.5054C59.0122 64.6641 58.7831 64.7902 58.5119 64.8836C58.2407 64.9769 57.9415 65.0096 57.6049 65.0096Z" fill="white"/>
</svg>
